<mxfile host="app.diagrams.net" modified="2022-12-15T01:24:15.345Z" agent="5.0 (Windows NT 10.0; Win64; x64) AppleWebKit/537.36 (KHTML, like Gecko) Chrome/101.0.0.0 Safari/537.36" version="20.6.2" etag="2Td-lKeuZZT-bfeMYF4c" type="github">
  <diagram id="IeUNCexHZYYnI_QEEKOX" name="第 1 页">
    <mxGraphModel dx="1325" dy="613" grid="1" gridSize="10" guides="1" tooltips="1" connect="1" arrows="1" fold="1" page="1" pageScale="1" pageWidth="827" pageHeight="1169" math="0" shadow="0">
      <root>
        <mxCell id="0" />
        <mxCell id="1" parent="0" />
        <mxCell id="LMR_eACNc_HiDDza0BWo-6" value="" style="edgeStyle=orthogonalEdgeStyle;rounded=0;orthogonalLoop=1;jettySize=auto;html=1;" edge="1" parent="1" source="LMR_eACNc_HiDDza0BWo-1" target="LMR_eACNc_HiDDza0BWo-2">
          <mxGeometry relative="1" as="geometry" />
        </mxCell>
        <mxCell id="LMR_eACNc_HiDDza0BWo-1" value="开始" style="strokeWidth=2;html=1;shape=mxgraph.flowchart.start_1;whiteSpace=wrap;" vertex="1" parent="1">
          <mxGeometry x="90" y="60" width="100" height="60" as="geometry" />
        </mxCell>
        <mxCell id="LMR_eACNc_HiDDza0BWo-4" style="edgeStyle=orthogonalEdgeStyle;rounded=0;orthogonalLoop=1;jettySize=auto;html=1;" edge="1" parent="1" source="LMR_eACNc_HiDDza0BWo-2" target="LMR_eACNc_HiDDza0BWo-3">
          <mxGeometry relative="1" as="geometry" />
        </mxCell>
        <mxCell id="LMR_eACNc_HiDDza0BWo-5" value="通不过" style="edgeLabel;html=1;align=center;verticalAlign=middle;resizable=0;points=[];" vertex="1" connectable="0" parent="LMR_eACNc_HiDDza0BWo-4">
          <mxGeometry x="-0.2299" y="-3" relative="1" as="geometry">
            <mxPoint as="offset" />
          </mxGeometry>
        </mxCell>
        <mxCell id="LMR_eACNc_HiDDza0BWo-10" style="edgeStyle=orthogonalEdgeStyle;rounded=0;orthogonalLoop=1;jettySize=auto;html=1;" edge="1" parent="1" source="LMR_eACNc_HiDDza0BWo-2" target="LMR_eACNc_HiDDza0BWo-9">
          <mxGeometry relative="1" as="geometry" />
        </mxCell>
        <mxCell id="LMR_eACNc_HiDDza0BWo-2" value="参数校验" style="strokeWidth=2;html=1;shape=mxgraph.flowchart.decision;whiteSpace=wrap;" vertex="1" parent="1">
          <mxGeometry x="90" y="170" width="100" height="100" as="geometry" />
        </mxCell>
        <mxCell id="LMR_eACNc_HiDDza0BWo-3" value="结束" style="strokeWidth=2;html=1;shape=mxgraph.flowchart.terminator;whiteSpace=wrap;" vertex="1" parent="1">
          <mxGeometry x="430" y="190" width="100" height="60" as="geometry" />
        </mxCell>
        <mxCell id="LMR_eACNc_HiDDza0BWo-11" style="edgeStyle=orthogonalEdgeStyle;rounded=0;orthogonalLoop=1;jettySize=auto;html=1;entryX=0.5;entryY=1;entryDx=0;entryDy=0;entryPerimeter=0;" edge="1" parent="1" source="LMR_eACNc_HiDDza0BWo-9" target="LMR_eACNc_HiDDza0BWo-3">
          <mxGeometry relative="1" as="geometry" />
        </mxCell>
        <mxCell id="LMR_eACNc_HiDDza0BWo-12" value="是" style="edgeLabel;html=1;align=center;verticalAlign=middle;resizable=0;points=[];" vertex="1" connectable="0" parent="LMR_eACNc_HiDDza0BWo-11">
          <mxGeometry x="-0.5464" y="4" relative="1" as="geometry">
            <mxPoint as="offset" />
          </mxGeometry>
        </mxCell>
        <mxCell id="LMR_eACNc_HiDDza0BWo-14" value="否" style="edgeStyle=orthogonalEdgeStyle;rounded=0;orthogonalLoop=1;jettySize=auto;html=1;" edge="1" parent="1" source="LMR_eACNc_HiDDza0BWo-9" target="LMR_eACNc_HiDDza0BWo-13">
          <mxGeometry relative="1" as="geometry" />
        </mxCell>
        <mxCell id="LMR_eACNc_HiDDza0BWo-9" value="任务是否正在实行" style="strokeWidth=2;html=1;shape=mxgraph.flowchart.decision;whiteSpace=wrap;" vertex="1" parent="1">
          <mxGeometry x="90" y="330" width="100" height="100" as="geometry" />
        </mxCell>
        <mxCell id="LMR_eACNc_HiDDza0BWo-18" style="edgeStyle=orthogonalEdgeStyle;rounded=0;orthogonalLoop=1;jettySize=auto;html=1;entryX=0.5;entryY=0;entryDx=0;entryDy=0;" edge="1" parent="1" source="LMR_eACNc_HiDDza0BWo-13" target="LMR_eACNc_HiDDza0BWo-15">
          <mxGeometry relative="1" as="geometry" />
        </mxCell>
        <mxCell id="LMR_eACNc_HiDDza0BWo-13" value="暂停任务" style="rounded=1;whiteSpace=wrap;html=1;absoluteArcSize=1;arcSize=14;strokeWidth=2;" vertex="1" parent="1">
          <mxGeometry x="90" y="485" width="100" height="75" as="geometry" />
        </mxCell>
        <mxCell id="LMR_eACNc_HiDDza0BWo-19" style="edgeStyle=orthogonalEdgeStyle;rounded=0;orthogonalLoop=1;jettySize=auto;html=1;" edge="1" parent="1" source="LMR_eACNc_HiDDza0BWo-15" target="LMR_eACNc_HiDDza0BWo-16">
          <mxGeometry relative="1" as="geometry" />
        </mxCell>
        <mxCell id="LMR_eACNc_HiDDza0BWo-15" value="删除基本信息" style="rounded=1;whiteSpace=wrap;html=1;absoluteArcSize=1;arcSize=14;strokeWidth=2;" vertex="1" parent="1">
          <mxGeometry x="90" y="610" width="100" height="70" as="geometry" />
        </mxCell>
        <mxCell id="LMR_eACNc_HiDDza0BWo-20" style="edgeStyle=orthogonalEdgeStyle;rounded=0;orthogonalLoop=1;jettySize=auto;html=1;entryX=0;entryY=0.5;entryDx=0;entryDy=0;" edge="1" parent="1" source="LMR_eACNc_HiDDza0BWo-16" target="LMR_eACNc_HiDDza0BWo-17">
          <mxGeometry relative="1" as="geometry" />
        </mxCell>
        <mxCell id="LMR_eACNc_HiDDza0BWo-16" value="删除映射信息" style="rounded=1;whiteSpace=wrap;html=1;absoluteArcSize=1;arcSize=14;strokeWidth=2;" vertex="1" parent="1">
          <mxGeometry x="280" y="615" width="100" height="60" as="geometry" />
        </mxCell>
        <mxCell id="LMR_eACNc_HiDDza0BWo-22" style="edgeStyle=orthogonalEdgeStyle;rounded=0;orthogonalLoop=1;jettySize=auto;html=1;entryX=1;entryY=0.5;entryDx=0;entryDy=0;entryPerimeter=0;" edge="1" parent="1" source="LMR_eACNc_HiDDza0BWo-17" target="LMR_eACNc_HiDDza0BWo-3">
          <mxGeometry relative="1" as="geometry" />
        </mxCell>
        <mxCell id="LMR_eACNc_HiDDza0BWo-17" value="删除任务" style="rounded=1;whiteSpace=wrap;html=1;absoluteArcSize=1;arcSize=14;strokeWidth=2;" vertex="1" parent="1">
          <mxGeometry x="520" y="615" width="100" height="60" as="geometry" />
        </mxCell>
      </root>
    </mxGraphModel>
  </diagram>
</mxfile>
